<svg role="img" fill="currentColor" viewBox="0 0 24 24" xmlns="http://www.w3.org/2000/svg"><title>Gitea</title><path d="M4.209 4.603c-.247 0-.525.02-.84.088-.333.07-1.28.283-2.054 1.027C-.403 6.407.16 7.837.31 8.15c.603 1.272.596 2.109.594 2.197 0 .048-.004.098-.004.15 0 3.407 2.014 6.481 5.166 7.925.06.03.132.07.196.098a.5.5 0 0 0 .034.015.35.35 0 0 0 .061.02c1.078.428 2.234.664 3.443.664 1.21 0 2.365-.236 3.443-.665a.37.37 0 0 0 .061-.019.5.5 0 0 0 .034-.015 8 8 0 0 0 .196-.098c3.152-1.444 5.166-4.518 5.166-7.925 0-.052-.004-.102-.004-.15-.002-.088-.009-.925.594-2.197.15-.313.713-1.743-.894-2.432-.774-.744-1.72-.957-2.054-1.027-.315-.068-.593-.088-.84-.088-.238 0-.445.02-.635.057-.19-.037-.397-.057-.635-.057-.065 0-.136.003-.207.008a3 3 0 0 0-.207-.008c-.238 0-.445.02-.635.057a4 4 0 0 0-.635-.057c-.065 0-.136.003-.207.008a3 3 0 0 0-.207-.008c-.238 0-.445.02-.635.057a4 4 0 0 0-.635-.057c-.065 0-.136.003-.207.008a3 3 0 0 0-.207-.008 4 4 0 0 0-.635.057c-.19-.037-.397-.057-.635-.057m3.591 3.267c.71 0 1.286.576 1.286 1.286s-.576 1.286-1.286 1.286S6.514 9.867 6.514 9.156s.576-1.286 1.286-1.286m4.6 0c.71 0 1.286.576 1.286 1.286s-.576 1.286-1.286 1.286S11.114 9.867 11.114 9.156s.576-1.286 1.286-1.286M9.6 14.014c1.603 0 2.907.885 2.907 1.964 0 1.08-1.304 1.964-2.907 1.964s-2.907-.885-2.907-1.964c0-1.08 1.304-1.964 2.907-1.964"/></svg>